<svg width="69" height="26" viewBox="0 0 69 26" fill="none" xmlns="http://www.w3.org/2000/svg">
<path d="M55.4179 25.2701C57.8863 26.2731 60.6902 25.0565 61.6789 22.5512L67.7736 7.10731C68.7623 4.60341 67.563 1.76066 65.0932 0.75774C62.6247 -0.245182 59.8222 0.971389 58.8335 3.47529L52.7374 18.9206C51.7487 21.4245 52.9494 24.2672 55.4179 25.2701Z" fill="#FD6B28"/>
<path d="M12.6922 25.2706C10.2237 26.2735 7.41985 25.057 6.43112 22.5517L0.345835 7.1078C-0.64289 4.6039 0.557801 1.76115 3.02626 0.758229C5.49472 -0.244693 8.29723 0.971877 9.28595 3.47578L15.3726 18.9211C16.36 21.425 15.1606 24.2677 12.6922 25.2706Z" fill="#E7CEB7"/>
<path d="M47.5965 25.2701C45.1267 26.2731 42.3242 25.0565 41.3354 22.5512L35.2501 7.10731C34.2614 4.60341 35.4621 1.76066 37.9306 0.75774C40.399 -0.245182 43.2029 0.971389 44.1903 3.47529L50.2769 18.9206C51.2643 21.4245 50.0649 24.2672 47.5965 25.2701Z" fill="#9D2B2E"/>
<path d="M20.5136 25.2701C22.982 26.2731 25.7859 25.0565 26.7746 22.5512L32.8693 7.10731C33.858 4.60341 32.6587 1.76066 30.1902 0.75774C27.7204 -0.245182 24.9179 0.971389 23.9292 3.47529L17.8331 18.9206C16.8444 21.4245 18.0451 24.2672 20.5136 25.2701Z" fill="#115E67"/>
</svg>
